<svg width="41" height="35" fill="none" xmlns="http://www.w3.org/2000/svg"><path d="M17.695 24.78c-1.977 0-3.586 1.443-3.586 3.217s1.609 3.217 3.586 3.217c1.977 0 3.586-1.443 3.586-3.217s-1.609-3.218-3.586-3.218Zm0 5.032c-1.116 0-2.023-.814-2.023-1.815s.907-1.816 2.023-1.816 2.023.815 2.023 1.816c0 1-.907 1.815-2.023 1.815ZM31.84 22.348c-1.503 0-2.726 1.097-2.726 2.446 0 1.35 1.223 2.447 2.727 2.447 1.503 0 2.726-1.098 2.726-2.447s-1.223-2.446-2.726-2.446Zm0 3.49c-.641 0-1.163-.468-1.163-1.044 0-.576.522-1.044 1.164-1.044.641 0 1.163.469 1.163 1.044 0 .576-.522 1.045-1.163 1.045ZM9.055 18.712c-1.411 0-2.559 1.03-2.559 2.296 0 1.266 1.148 2.297 2.559 2.297 1.41 0 2.559-1.03 2.559-2.297 0-1.266-1.148-2.296-2.559-2.296Zm0 3.19c-.55 0-.996-.4-.996-.894 0-.493.446-.894.996-.894s.996.401.996.894-.447.895-.996.895ZM30.46 8.781c1.43 0 2.592-1.043 2.592-2.325 0-1.282-1.163-2.325-2.592-2.325-1.428 0-2.59 1.043-2.59 2.325 0 1.282 1.162 2.325 2.59 2.325Zm0-3.248c.568 0 1.03.414 1.03.923 0 .51-.462.923-1.03.923-.567 0-1.028-.414-1.028-.923 0-.509.461-.923 1.028-.923Z" fill="#A5A5A5"/><path d="m40.456 14.9-.082-.523c-.752-4.79-3.005-9.255-6.516-12.912-1.473-1.534-3.956-1.913-5.906-.9L17.34 6.078c-.278.145-.43.427-.38.712.097.578-.11 1.146-.57 1.559-.729.654-1.886.713-2.69.136a.854.854 0 0 0-.88-.059L2.762 13.652a4.337 4.337 0 0 0-1.597 1.404.679.679 0 0 0-.236.394A3.713 3.713 0 0 0 .5 17.17v8.31c0 .388.35.701.781.701 1.116 0 2.023.815 2.023 1.816 0 1-.907 1.815-2.023 1.815-.431 0-.781.314-.781.701v.421C.5 33.176 2.533 35 5.031 35h22.626c.431 0 .78-.314.78-.701 0-1.001.909-1.816 2.024-1.816s2.023.815 2.023 1.816c0 .387.35.701.781.701h2.704c2.498 0 4.531-1.824 4.531-4.066V15.466c0-.189-.015-.38-.044-.567Zm-4.487 18.698H33.96c-.358-1.438-1.791-2.517-3.5-2.517s-3.142 1.079-3.5 2.517H5.03c-1.561 0-2.845-1.087-2.96-2.462 1.598-.324 2.796-1.608 2.796-3.14s-1.202-2.819-2.804-3.14v-7.685c0-.313.062-.617.178-.903h5.316c.432 0 .782-.314.782-.701 0-.387-.35-.701-.782-.701H3.543l9.637-5.007c1.383.712 3.154.522 4.314-.519.672-.603 1.046-1.424 1.05-2.267l10.191-5.295c1.3-.675 2.956-.422 3.94.602 3.314 3.453 5.442 7.669 6.151 12.192l.047.294H21.624c.323-.816 1.19-1.402 2.21-1.402.431 0 .78-.314.78-.702 0-.387-.349-.7-.78-.7-1.887 0-3.465 1.206-3.828 2.804h-5.678c-.431 0-.781.314-.781.7 0 .388.35.702.781.702h5.678c.363 1.598 1.94 2.804 3.827 2.804s3.465-1.206 3.828-2.804h11.276v14.666c0 1.469-1.331 2.664-2.968 2.664Zm-9.926-17.33c-.323.816-1.191 1.402-2.21 1.402-1.018 0-1.886-.586-2.209-1.402h4.419Z" fill="#A5A5A5"/><path d="M11.047 14.866a.836.836 0 0 0-.553.205.672.672 0 0 0-.228.496c0 .184.083.365.229.495.145.13.347.206.552.206a.835.835 0 0 0 .552-.206.672.672 0 0 0 .23-.495.672.672 0 0 0-.23-.496.835.835 0 0 0-.552-.205Z" fill="#A5A5A5"/></svg>