<svg width="33" height="32" fill="none" xmlns="http://www.w3.org/2000/svg"><g clip-path="url(#a)"><mask id="b" style="mask-type:alpha" maskUnits="userSpaceOnUse" x="0" y="0" width="17" height="32"><path fill="#C4C4C4" d="M.5 0h16.4v32H.5z"/></mask><g mask="url(#b)" fill="#FF7010"><path d="M13.84 28.845a2.9 2.9 0 0 1-2.636-1.696 1.695 1.695 0 0 0-1.702-.984 2.884 2.884 0 0 1-2.323-.835 2.887 2.887 0 0 1-.834-2.325 1.687 1.687 0 0 0-.019-.432l-3.365 1.945c2.735 4.34 7.492 7.28 12.939 7.482v-3.894a1.68 1.68 0 0 0-.383.2 2.881 2.881 0 0 1-1.677.539ZM13.399 4.415c-.49.131-.892.472-1.103.934a2.897 2.897 0 0 1-2.91 1.682c-.505-.049-1 .129-1.359.488-.359.36-.536.855-.488 1.36.04.405-.015.8-.135 1.17L15.9 14.96V5.14c-.38-.081-.75-.232-1.08-.468a1.687 1.687 0 0 0-1.421-.257Zm.168 6.5a1.893 1.893 0 0 1-2.587-.694 1.896 1.896 0 0 1 .693-2.589 1.893 1.893 0 0 1 2.587.694 1.896 1.896 0 0 1-.693 2.59ZM5.362 21.3a2.884 2.884 0 0 1-1.595-1.884 2.887 2.887 0 0 1 .44-2.432c.419-.588.419-1.38 0-1.968a2.888 2.888 0 0 1-.44-2.431A2.885 2.885 0 0 1 5.362 10.7c.134-.061.254-.142.364-.232L2.358 8.52A15.924 15.924 0 0 0 .5 16.001c0 2.7.674 5.244 1.858 7.478l3.368-1.946c-.11-.09-.23-.171-.364-.233Z"/><path d="M4.926 19.104c.131.49.471.893.933 1.103.37.169.685.413.945.703L15.3 16l-8.496-4.91c-.26.29-.575.534-.945.702-.462.211-.802.613-.933 1.104-.131.49-.038 1.009.257 1.422a2.897 2.897 0 0 1 0 3.364 1.69 1.69 0 0 0-.257 1.422Zm3.814-5a1.894 1.894 0 1 1-.001 3.79 1.894 1.894 0 0 1 .001-3.79ZM2.96 7.482l3.366 1.945c.023-.14.033-.285.019-.432a2.887 2.887 0 0 1 .834-2.325 2.882 2.882 0 0 1 2.323-.835 1.694 1.694 0 0 0 1.702-.984 2.885 2.885 0 0 1 1.884-1.596 2.88 2.88 0 0 1 2.429.44c.12.085.25.149.383.2V0C10.453.202 5.696 3.141 2.96 7.482ZM7.54 23.12a1.695 1.695 0 0 0 1.847 1.85 2.888 2.888 0 0 1 2.91 1.68c.21.463.611.804 1.102.935.49.131 1.008.038 1.42-.257.331-.236.7-.387 1.081-.468v-9.82l-8.496 4.91c.12.37.174.766.135 1.17Zm3.44-1.341a1.893 1.893 0 0 1 2.587-.694 1.896 1.896 0 0 1 .693 2.589 1.893 1.893 0 0 1-2.587.694 1.896 1.896 0 0 1-.693-2.59Z"/></g><path d="M30.417 26.261a5.26 5.26 0 0 1-.21-4.4c.628-1.558.96-3.355.96-5.194 0-3.145-.878-5.076-1.727-6.943-.76-1.67-1.472-3.267-1.584-5.729a.664.664 0 0 0-.023-1.328v-2A.666.666 0 0 0 27.167 0h-5.334a.666.666 0 0 0-.666.667v2a.664.664 0 0 0-.023 1.329c-.112 2.46-.825 4.058-1.584 5.728-.849 1.867-1.727 3.798-1.727 6.943 0 1.839.332 3.636.96 5.194a5.263 5.263 0 0 1-.21 4.401 6.678 6.678 0 0 0-.75 3.071c0 .75.13 1.497.387 2.222a.666.666 0 0 0 .628.445h11.303a.666.666 0 0 0 .628-.444 6.613 6.613 0 0 0-.362-5.295c0 .001 0 .001 0 0ZM26.514 4c.02.475.066.911.123 1.333h-4.274c.058-.422.104-.858.124-1.333h4.027Zm2.451 8c.164.424.312.865.44 1.333h-9.81c.128-.468.276-.909.44-1.333h8.93Zm.442 8c-.12.46-.257.909-.426 1.333H20.02c-.17-.424-.307-.873-.427-1.333h9.814Z" fill="#FF7010"/></g><defs><clipPath id="a"><path fill="#fff" transform="translate(.5)" d="M0 0h32v32H0z"/></clipPath></defs></svg>