<svg width="40" height="40" fill="none" xmlns="http://www.w3.org/2000/svg"><path d="M39.452 13.781c.43-1.685.337-3.396-.266-4.832a5.528 5.528 0 0 0-1.48-2.074l.315-1.594c.14-.702.476-1.35.975-1.875a1.335 1.335 0 0 0 .015-1.842L37.88.339a1.063 1.063 0 0 0-1.705.205l-.495.913a15.716 15.716 0 0 0-.989 2.22 4.519 4.519 0 0 0-1.08-1.432c.2-.463.373-.972.513-1.518a.585.585 0 0 0-.44-.71.603.603 0 0 0-.728.428 8.866 8.866 0 0 1-.355 1.096c-1.324-.722-2.94-.94-3.932-.161-.68.532-1.141 1.636-.739 2.56.4.916 1.488 1.315 2.333 1.295 1.034-.022 2.013-.72 2.77-1.899.51.529.877 1.393.92 2.31a7.35 7.35 0 0 0-3.05.747c-1.568.758-2.92 2.028-3.807 3.578a37.52 37.52 0 0 1-1.869 2.975 1.876 1.876 0 0 0-.763-.023 1.772 1.772 0 0 0-1.453 1.447c-.067.414.014.828.23 1.18a38.237 38.237 0 0 1-4.677 4.71.575.575 0 0 0-.06.826c.218.244.598.27.848.058a39.407 39.407 0 0 0 4.924-4.976.957.957 0 0 0 .026-1.177.57.57 0 0 1-.103-.438.591.591 0 0 1 .479-.477.622.622 0 0 1 .31.021c.424.143.899-.013 1.155-.38a38.701 38.701 0 0 0 2.006-3.179c1.372-2.398 3.906-3.842 6.266-3.71-.212.16-.424.32-.638.474-.83.603-1.57 1.322-2.206 2.142a1.855 1.855 0 0 0-.318-.027c-.996 0-1.806.788-1.806 1.758 0 .412.148.792.393 1.092a41.163 41.163 0 0 1-6.791 8.643 1.837 1.837 0 0 0-.663-.123c-.996 0-1.806.788-1.806 1.758 0 .18.029.353.08.517a42.238 42.238 0 0 1-14.55 7.906A11.403 11.403 0 0 0 1.83 33.41c-.193.177-.39.353-.589.528.275-2.285 2.175-4.465 4.836-5.364a40.48 40.48 0 0 0 2.023-.731.974.974 0 0 0 .614-1.061.567.567 0 0 1-.006-.138.606.606 0 0 1 1.069-.324 1.02 1.02 0 0 0 1.222.255 40.143 40.143 0 0 0 6.142-3.69.576.576 0 0 0 .12-.82.612.612 0 0 0-.842-.118 38.923 38.923 0 0 1-5.82 3.512 1.828 1.828 0 0 0-1.304-.53c-.936.006-1.72.723-1.788 1.632a1.705 1.705 0 0 0 0 .25 39.49 39.49 0 0 1-1.82.655c-1.72.58-3.237 1.656-4.276 3.029C.308 31.952-.173 33.658.056 35.297l.002.015v.003l.002.004c.191 1.353 1.003 2.571 2.29 3.43C3.582 39.573 5.113 40 6.74 40c.735 0 1.489-.087 2.243-.264a.585.585 0 0 0 .444-.707.603.603 0 0 0-.726-.432c-2.063.484-4.184.18-5.671-.814-.655-.438-1.15-.988-1.457-1.602.309.108.618.214.928.315.829.273 1.717.409 2.623.409.93 0 1.879-.144 2.798-.432.407-.127.815-.26 1.22-.398.33.375.822.614 1.369.614.995 0 1.805-.789 1.805-1.758 0-.02 0-.042-.002-.062 2.138-.9 4.22-1.956 6.203-3.148.312.247.71.397 1.142.397.995 0 1.805-.79 1.805-1.759a1.71 1.71 0 0 0-.077-.508 47.597 47.597 0 0 0 9.512-8.837c.175.055.362.085.555.085.996 0 1.806-.789 1.806-1.758 0-.374-.121-.72-.326-1.006a46.773 46.773 0 0 0 2.398-3.78.578.578 0 0 0-.235-.797.61.61 0 0 0-.817.229 45.618 45.618 0 0 1-2.325 3.665 1.843 1.843 0 0 0-.5-.07c-.996 0-1.806.79-1.806 1.759 0 .354.109.684.295.96a46.408 46.408 0 0 1-9.27 8.606 1.83 1.83 0 0 0-1.015-.305c-.996 0-1.806.788-1.806 1.758 0 .123.014.244.039.36a47.504 47.504 0 0 1-6.02 3.059 1.822 1.822 0 0 0-1.361-.606c-.995 0-1.805.789-1.805 1.758v.049c-.382.13-.767.257-1.151.377-1.548.485-3.25.495-4.67.028-.36-.117-.72-.24-1.077-.367.287-.249.57-.501.846-.755a10.18 10.18 0 0 1 3.825-2.179 43.442 43.442 0 0 0 14.903-8.08c.287.19.633.3 1.005.3.995 0 1.805-.79 1.805-1.759 0-.313-.085-.608-.233-.863a42.333 42.333 0 0 0 6.902-8.791c.127.027.258.042.393.042.995 0 1.805-.789 1.805-1.758 0-.435-.163-.834-.433-1.141a9.71 9.71 0 0 1 1.871-1.792c.306-.222.61-.45.912-.682.067.366.128.732.185 1.098.146.934.072 1.951-.212 2.941a.584.584 0 0 0 .416.722.6.6 0 0 0 .742-.406c.33-1.148.415-2.336.243-3.432a43.085 43.085 0 0 0-.157-.948c1.599 1.128 2.308 3.563 1.631 6.066a.962.962 0 0 0 .325.993.576.576 0 0 1 .213.498.597.597 0 0 1-.67.533 1.016 1.016 0 0 0-1.001.487 49.28 49.28 0 0 1-9.25 11.476.953.953 0 0 0-.137 1.267.57.57 0 0 1 .103.403.599.599 0 0 1-.553.514.609.609 0 0 1-.44-.143 1.026 1.026 0 0 0-1.31-.022 50.698 50.698 0 0 1-7.94 5.28.962.962 0 0 0-.486 1.105.576.576 0 0 1 .013.24.598.598 0 0 1-.499.49.611.611 0 0 1-.56-.209 1.023 1.023 0 0 0-1.213-.257 51.471 51.471 0 0 1-3.597 1.498.581.581 0 0 0-.347.756.602.602 0 0 0 .777.338 52.663 52.663 0 0 0 3.556-1.475c.405.404.977.592 1.562.508.777-.113 1.399-.722 1.512-1.48a1.717 1.717 0 0 0-.007-.557 51.91 51.91 0 0 0 7.873-5.235c.343.245.761.362 1.192.332.866-.06 1.565-.713 1.662-1.55a1.726 1.726 0 0 0-.217-1.06A50.454 50.454 0 0 0 38.107 16.8c.177.009.355-.008.53-.052a1.77 1.77 0 0 0 1.358-1.564 1.74 1.74 0 0 0-.543-1.402Zm-9.215-9.717c-.377.008-1.02-.17-1.198-.581-.165-.38.067-.941.385-1.19.211-.166.508-.242.848-.242.548 0 1.21.198 1.81.542-.546.898-1.213 1.457-1.845 1.47Zm1.217 14.69c.332 0 .602.264.602.587 0 .323-.27.586-.602.586a.595.595 0 0 1-.602-.586c0-.323.27-.586.602-.586Zm-11.796 11.02c.332 0 .603.262.603.585 0 .324-.27.587-.602.587a.595.595 0 0 1-.602-.587c0-.323.27-.586.602-.586Zm-9.147 4.57c.332 0 .602.264.602.587 0 .323-.27.586-.602.586a.595.595 0 0 1-.602-.586c0-.323.27-.586.602-.586Zm11.876-11.213a.595.595 0 0 1-.602-.586c0-.323.27-.586.602-.586.332 0 .602.263.602.586 0 .323-.27.586-.602.586Zm8.867-11.37a.595.595 0 0 1-.602-.586c0-.324.27-.587.602-.587.332 0 .602.263.602.587 0 .323-.27.586-.602.586Zm5.49-9.757.392-.72.98 1.062a.191.191 0 0 1-.003.264 4.943 4.943 0 0 0-1.273 2.45l-.22 1.112a5.578 5.578 0 0 0-1.308-.413l.235-.824c.29-1.014.693-2 1.198-2.93Z" fill="#FF7010"/></svg>