<svg width="27" height="32" fill="none" xmlns="http://www.w3.org/2000/svg"><path d="M15.17 15.792a2.36 2.36 0 0 0-1.67-.696 2.36 2.36 0 0 0-1.67.696s-1.31 1.336-1.684 1.637L11.291 32h4.424l1.147-14.561c-.216-.12-1.694-1.647-1.694-1.647ZM6.875 15.642a2.364 2.364 0 0 0-1.583-.692 2.358 2.358 0 0 0-1.628.575L1.37 17.49l2.208 12.46c.102.573.398 1.092.836 1.465.439.373.992.577 1.563.576h4.005l-1.14-14.478c-.26-.1-1.967-1.87-1.967-1.87ZM12.97 2.68c.17.069.35.106.531.11.228.006.453-.049.654-.16.2-.11.37-.27.49-.468a1.392 1.392 0 0 0 .088-1.38 1.394 1.394 0 0 0-.39-.489 1.361 1.361 0 0 0-1.18-.25c-.202.052-.39.15-.55.288a1.422 1.422 0 0 0-.322 1.73c.154.277.393.494.68.62Z" fill="#FF7010"/><path d="m21.409 8.512-.374-.09-.092-.381c-.586-2.338-2.674-4.239-5.377-4.886-.246.316-.56.57-.92.738a2.47 2.47 0 0 1-1.148.233c-1.098 0-2.006-.918-2.058-.981-2.7.647-4.788 2.528-5.371 4.879l-.089.397-.376.1a6.39 6.39 0 0 0-3.803 2.85 6.607 6.607 0 0 0-.84 4.732l1.857-1.593a3.654 3.654 0 0 1 2.52-.89c.92.034 1.793.415 2.451 1.07l1.639 1.617 1.5-1.48a3.547 3.547 0 0 1 1.18-.797 3.495 3.495 0 0 1 1.39-.265 3.693 3.693 0 0 1 2.585 1.085l1.469 1.463 1.674-1.64a3.663 3.663 0 0 1 2.446-1.055c.915-.031 1.81.286 2.509.888l1.855 1.597a6.597 6.597 0 0 0-.828-4.736 6.381 6.381 0 0 0-3.8-2.855Z" fill="#FF7010"/><path d="M20.134 15.622s-1.763 1.783-1.966 1.863L17.024 31.99h4.011c.571 0 1.124-.204 1.563-.577.438-.373.734-.89.836-1.464l1.098-6.192 1.09-6.269-2.293-1.973a2.362 2.362 0 0 0-1.618-.572c-.59.02-1.152.262-1.577.679Z" fill="#FF7010"/></svg>