<svg width="27" height="32" fill="none" xmlns="http://www.w3.org/2000/svg"><path d="M6.565 0c-.295 0-.516.238-.533.533v8.095c.536.194.952.666 1.046 1.251.003.02.216 1.214 1.087 2.471V.533A.532.532 0 0 0 7.632 0H6.565Zm12.8 0c-.295 0-.516.238-.533.533v11.812c.876-1.267 1.09-2.476 1.09-2.476.097-.58.51-1.048 1.043-1.24V.532A.532.532 0 0 0 20.432 0h-1.067Zm-9.6 2.133a.532.532 0 0 0-.533.534V13.55a5.268 5.268 0 0 0 2.133 1.122V2.667a.532.532 0 0 0-.533-.534H9.765Zm6.4 0a.532.532 0 0 0-.533.534v12.006a5.264 5.264 0 0 0 2.133-1.124V2.667a.532.532 0 0 0-.533-.534h-1.067Zm-12.8 2.134a.532.532 0 0 0-.533.533v3.732h2.133V4.8a.532.532 0 0 0-.533-.533H3.365Zm9.6 0a.532.532 0 0 0-.533.533v10.075c.33.037.685.058 1.065.058.382 0 .736-.02 1.068-.058V4.8a.532.532 0 0 0-.533-.533h-1.067Zm9.6 0a.532.532 0 0 0-.533.533v3.732h2.133V4.8a.532.532 0 0 0-.533-.533h-1.067ZM.698 9.599a.533.533 0 0 0-.527.602l2.666 20.264C2.93 31.258 3.55 32 4.43 32h18.134c.877 0 1.497-.74 1.594-1.531l2.67-20.268a.533.533 0 0 0-.532-.602h-4.799a.533.533 0 0 0-.524.449s-.252 1.48-1.311 2.976C18.603 14.519 16.8 16 13.498 16c-3.302 0-5.106-1.48-6.165-2.976-1.06-1.495-1.308-2.976-1.308-2.976a.533.533 0 0 0-.527-.449h-4.8Zm12.8 10.135a4.272 4.272 0 0 1 4.267 4.264 4.276 4.276 0 0 1-4.267 4.268 4.277 4.277 0 0 1-4.268-4.268 4.274 4.274 0 0 1 4.268-4.264Z" fill="#FF7010"/></svg>