<svg width="16" height="16" fill="none" xmlns="http://www.w3.org/2000/svg"><path d="M8 0C3.589 0 0 3.589 0 8s3.589 8 8 8 8-3.589 8-8-3.589-8-8-8Zm0 15.448C3.892 15.448.552 12.108.552 8 .552 3.892 3.892.552 8 .552c4.108 0 7.448 3.34 7.448 7.448 0 4.108-3.34 7.448-7.448 7.448Z" fill="#A5A5A5"/><path d="m8.292 8 2.314-2.314a.205.205 0 0 0 .045-.225.205.205 0 0 0-.191-.128.206.206 0 0 0-.146.06L8 7.709 5.685 5.394a.206.206 0 0 0-.292.292L7.708 8l-2.315 2.315a.206.206 0 0 0 .292.291L8 8.292l2.314 2.314a.208.208 0 0 0 .292 0 .205.205 0 0 0 .045-.224.205.205 0 0 0-.045-.067L8.292 8Z" fill="#A5A5A5"/></svg>