<svg width="35" height="41" fill="none" xmlns="http://www.w3.org/2000/svg"><path d="M2.732 26.032c.325.968.572 1.666.769 2.218a21.293 21.293 0 0 1 1.224 5.01c.798 4.746 1.459 7.223 6.72 7.223a6.945 6.945 0 0 0 3.551-.695 4.895 4.895 0 0 0 5.019.006 6.964 6.964 0 0 0 3.54.689c5.261 0 5.922-2.476 6.72-7.22a21.29 21.29 0 0 1 1.224-5.011c.197-.555.444-1.25.77-2.218.389-1.146.853-2.266 1.39-3.352a10.707 10.707 0 0 0 1.336-5.523c-.067-4.757-3.945-8.597-8.748-8.664a9.022 9.022 0 0 0-5.292 1.368 6.455 6.455 0 0 0-1.436-.917v-2.65c0-1 .31-1.634.921-1.892.333-.139.593-.41.716-.746.129-.348.108-.734-.06-1.066l-.69-1.36a1.374 1.374 0 0 0-1.801-.6C15.48 2.14 15.48 4.325 15.48 5.63v3.308a6.405 6.405 0 0 0-1.451.915 9.031 9.031 0 0 0-5.277-1.358C3.95 8.562.073 12.402.005 17.16a10.707 10.707 0 0 0 1.337 5.522c.536 1.086 1 2.206 1.39 3.351ZM16.827 5.63c0-1.183 0-2.656 2.379-3.799l.709 1.346c-.65.274-1.742 1.044-1.742 3.12v2.248a4.63 4.63 0 0 0-.673-.05c-.225.002-.45.02-.673.054V5.63ZM8.753 9.828a8.033 8.033 0 0 1 4.295.984 14.275 14.275 0 0 0-2.423 4.1c-.138.341.03.73.375.866a.676.676 0 0 0 .875-.37c1.431-3.547 3.481-5.58 5.625-5.58 2.874 0 5.599 3.799 6.781 9.456a.671.671 0 0 0 1.316-.268c-.74-3.528-2.039-6.361-3.657-8.197a8.016 8.016 0 0 1 4.307-.991c4.064.056 7.345 3.306 7.402 7.33a9.523 9.523 0 0 1-1.211 4.955 29.05 29.05 0 0 0-1.449 3.498c-.323.959-.568 1.648-.763 2.2a22.36 22.36 0 0 0-1.278 5.233c-.78 4.64-1.226 6.106-5.392 6.106a7.73 7.73 0 0 1-2.288-.267 11.703 11.703 0 0 0 2.49-3.433.664.664 0 0 0-.303-.894.676.676 0 0 0-.902.3c-1.395 2.767-3.189 4.294-5.053 4.294-2.385 0-4.72-2.63-6.092-6.864a.675.675 0 0 0-.833-.39.665.665 0 0 0-.446.798 14.23 14.23 0 0 0 3.615 6.189 7.703 7.703 0 0 1-2.3.267c-4.166 0-4.612-1.466-5.392-6.108a22.357 22.357 0 0 0-1.279-5.233c-.195-.549-.44-1.238-.763-2.2a29.061 29.061 0 0 0-1.448-3.496 9.522 9.522 0 0 1-1.211-4.954c.057-4.025 3.338-7.275 7.402-7.33Z" fill="#FF7010"/></svg>