<svg width="41" height="27" fill="none" xmlns="http://www.w3.org/2000/svg"><path d="M40.476 6.527C40.436 3.472 37.946 1 34.893 1c-2.728 0-5.004 1.974-5.487 4.573-.96.426-2.625 1.107-3.618 1.272-1.197.2-2.644.26-4.3.178-3.162-.155-6.32-1.189-9.131-2.989-3.538-2.264-6.55-2.794-9.77-1.718A3.077 3.077 0 0 0 .5 5.25c0 .433.235.832.612 1.04.431.236.834.44 1.224.638 2.113 1.07 3.277 1.66 4.048 4.91.576 2.427 1.584 4.46 2.997 6.045.882.99 1.926 1.809 3.113 2.444a3.204 3.204 0 0 0-1.192 2.495v1.996c0 .653.525 1.183 1.172 1.183H26.43c.647 0 1.172-.53 1.172-1.183V22.82a3.204 3.204 0 0 0-1.182-2.487c3.024-1.78 4.866-4.807 5.327-8.761a18.19 18.19 0 0 0-.104-4.824 1.18 1.18 0 0 0 .01-.147 3.241 3.241 0 0 1 3.24-3.236 3.241 3.241 0 0 1 3.24 3.236c0 .056.004.112.012.168.001.012.13 1.185-.592 2.027-.592.69-1.639 1.04-3.11 1.04-.647 0-1.172.53-1.172 1.183 0 .654.525 1.183 1.172 1.183 2.182 0 3.824-.625 4.881-1.857 1.297-1.51 1.202-3.347 1.152-3.82ZM25.189 18.32c-.985.57-2.102.942-3.32 1.102-4.083.539-11.227.198-13.206-8.137-1.025-4.32-2.995-5.318-5.275-6.474l-.272-.137a.681.681 0 0 1 .208-.113c2.524-.843 4.85-.404 7.777 1.47 3.154 2.02 6.706 3.179 10.273 3.355 1.822.09 3.435.02 4.797-.208.977-.162 2.287-.648 3.28-1.056a15.6 15.6 0 0 1-.039 3.239c-.392 3.221-1.813 5.563-4.223 6.96Zm-10.697 3.662h9.92c.467 0 .846.376.846.838v.813H13.646v-.813c0-.462.38-.838.846-.838Z" fill="#A5A5A5" stroke="#fff"/></svg>