<svg width="33" height="20" fill="none" xmlns="http://www.w3.org/2000/svg"><path d="M19.96 13.382c-4.257 0-8.267.626-11.6 1.81a7.578 7.578 0 0 1-2.544.44 7.5 7.5 0 0 1-3.047-.647A6.79 6.79 0 0 0 9.319 20h15.492a6.79 6.79 0 0 0 6.574-5.104 3.314 3.314 0 0 1-.893-.125c-3.212-.909-6.855-1.39-10.533-1.39ZM10.541 12.252a36.725 36.725 0 0 1 4.146-.752c-2.782-3.04-3.041-8.159-.503-11.5a22.225 22.225 0 0 0-5.896.974A6.831 6.831 0 0 0 6.36 4.351c-.813 3.207 1.083 6.767 4.181 7.901Z" fill="#FF7010"/><path d="M7.604 13.122c-2.782-2.081-4.231-5.679-3.395-9.27a8.97 8.97 0 0 1 .42-1.322 16.43 16.43 0 0 0-2.078 1.372C-1.458 7 .825 13.442 5.816 13.43c.594 0 1.198-.1 1.788-.308ZM26.446 3.226a4.86 4.86 0 0 0-2.235 2.247 4.849 4.849 0 0 0 .466 5.014c.164.222.77.89.826 1.042 1.924.245 3.807.618 5.592 1.123.37.105.77.01 1.053-.253a1.1 1.1 0 0 0 .33-1.03c-.675-3.26-2.888-6.11-6.032-8.143ZM17.69 11.238a44.341 44.341 0 0 1 4.848.017 7.04 7.04 0 0 1-.314-6.74 7.06 7.06 0 0 1 2.026-2.503C22.11 1.008 19.678.338 17.086.092c-3.509 2.89-3.18 8.677.604 11.146Z" fill="#FF7010"/></svg>